<?xml version="1.0" encoding="UTF-8" standalone="no"?>
<!DOCTYPE svg PUBLIC "-//W3C//DTD SVG 1.1//EN" "http://www.w3.org/Graphics/SVG/1.1/DTD/svg11.dtd">
<svg width="100%" height="100%" viewBox="0 0 3544 1063" version="1.1" xmlns="http://www.w3.org/2000/svg" xmlns:xlink="http://www.w3.org/1999/xlink" xml:space="preserve" xmlns:serif="http://www.serif.com/" style="fill-rule:evenodd;clip-rule:evenodd;stroke-linejoin:round;stroke-miterlimit:2;">
    <g transform="matrix(2.021635,0,0,1.135506,-880.233476,-86.786956)">
        <rect x="457" y="253" width="416" height="583"/>
    </g>
    <g transform="matrix(1.115559,0,0,1.115559,-102.333325,-138.275483)">
        <g transform="matrix(438.358555,0,0,438.358555,493.837601,648)">
        </g>
        <text x="130px" y="648px" style="font-family:'PTSerif-Caption', 'PT Serif Caption', serif;font-size:438.359px;fill:rgb(255,0,0);">O</text>
    </g>
    <g transform="matrix(0.793225,0,0,0.793225,811.623967,3.993808)">
        <text x="130px" y="648px" style="font-family:'PTSerif-Caption', 'PT Serif Caption', serif;font-size:504.27px;fill:rgb(255,0,0);">O</text>
        <g transform="matrix(438.358555,0,0,438.358555,3392.176397,648)">
        </g>
        <text x="548.544px" y="648px" style="font-family:'PTSerif-Caption', 'PT Serif Caption', serif;font-size:438.359px;fill:rgb(255,0,0);">LAF KASTEN</text>
    </g>
    <g transform="matrix(0.734867,0,0,0.734867,828.722088,349.729017)">
        <text x="130px" y="648px" style="font-family:'PTSerif-Caption', 'PT Serif Caption', serif;font-size:544.316px;">B</text>
        <g transform="matrix(438.358555,0,0,438.358555,3665.266675,648)">
        </g>
        <text x="505.578px" y="648px" style="font-family:'PTSerif-Caption', 'PT Serif Caption', serif;font-size:438.359px;">AUELEMENTE</text>
    </g>
    <g transform="matrix(1.115559,0,0,1.115559,137.217502,-56.903029)">
        <g transform="matrix(438.358555,0,0,438.358555,442.111291,648)">
        </g>
        <text x="130px" y="648px" style="font-family:'PTSerif-Caption', 'PT Serif Caption', serif;font-size:438.359px;fill:rgb(255,0,0);">K</text>
    </g>
    <g transform="matrix(1.115559,0,0,1.115559,350.217502,79.096971)">
        <g transform="matrix(438.358555,0,0,438.358555,432.467403,648)">
        </g>
        <text x="130px" y="648px" style="font-family:'PTSerif-Caption', 'PT Serif Caption', serif;font-size:438.359px;fill:rgb(255,0,0);">B</text>
    </g>
</svg>
